<svg version="1.2" baseProfile="tiny-ps" xmlns="http://www.w3.org/2000/svg" viewBox="0 0 362 403" width="362" height="403">
	<title>entertain_logo</title>
	<style>
		tspan { white-space:pre }
		.shp0 { fill: #0a1929 } 
		.shp1 { fill: #204c7d } 
	</style>
	<path id="Path 0" fill-rule="evenodd" class="shp0" d="M240.5 13.05C243.98 13.22 248.18 14.2 250.5 15.37C252.7 16.48 255.73 19.13 257.23 21.26C258.74 23.39 260.44 26.71 261.02 28.63C261.59 30.56 262.01 34.83 261.95 38.13C261.89 41.43 261.88 44.69 261.92 45.38C261.96 46.07 265.71 49.3 270.25 52.55C274.79 55.81 281.2 61.21 284.5 64.56C287.8 67.91 291.29 70.65 292.25 70.64C293.34 70.63 294.23 69.59 294.61 67.88C294.95 66.37 294.97 64.23 294.1 61.13L295.67 63.13C296.53 64.23 298.48 67.83 299.99 71.13C301.51 74.43 303.46 80.06 304.32 83.63C305.19 87.21 306.37 94.52 306.95 99.88C307.53 105.24 308 111.66 308 114.13C308 116.61 307.55 118.86 307 119.13C306.45 119.41 304.09 117.75 301.75 115.46C299.41 113.16 294.35 108.77 290.5 105.69C286.65 102.62 280.8 98.45 277.5 96.43C274.2 94.42 267 90.96 261.5 88.76C256 86.56 247.67 83.99 243 83.05C236.61 81.77 231.77 81.49 223.5 81.93C215.05 82.37 210.19 83.24 202.5 85.69C197 87.44 189.8 90.23 186.5 91.89C183.2 93.55 177.91 96.64 174.75 98.77C171.59 100.89 169 103.31 169 104.13C169 104.96 169.56 105.66 170.25 105.69C170.94 105.73 175.77 105.7 181 105.64C186.35 105.57 193.99 106.23 198.5 107.15C202.9 108.05 206.85 109.09 207.29 109.46C207.72 109.83 206.26 110.92 204.04 111.88C201.82 112.84 196.96 115.63 193.25 118.08C189.54 120.52 183.49 125.58 179.81 129.33C176.12 133.07 171.5 138.83 169.52 142.13C167.55 145.43 164.6 152.29 162.97 157.38C161.09 163.24 159.79 169.83 159.41 175.38C159.09 180.19 159.22 185.93 159.71 188.13C160.33 190.99 161.14 192.2 162.54 192.37C163.83 192.53 165.37 191.34 167.06 188.87C168.58 186.64 172.01 183.83 175.56 181.91C178.83 180.14 182.74 178.68 187 178.63L183.98 182.88C182.14 185.48 180.38 189.84 179.44 194.13C178.44 198.69 178.13 203.22 178.54 207.13C178.89 210.43 180.3 217.41 181.68 222.63C183.06 227.86 185.75 235.51 187.66 239.63C189.57 243.76 193.08 249.83 195.46 253.13C197.84 256.43 203.32 262.54 207.64 266.71C211.96 270.88 218.88 276.56 223 279.34C227.13 282.11 235.11 286.47 240.75 289.01C246.39 291.55 256.06 295.17 262.25 297.05C268.44 298.93 276.54 300.95 280.25 301.55C283.96 302.14 287 302.97 286.99 303.38C286.98 303.79 286.28 306.38 285.44 309.13C284.45 312.34 284.12 315.74 284.52 318.63C284.86 321.11 286.96 330.33 289.18 339.13C292.76 353.29 293.18 356.16 292.83 364.13C292.48 372.32 292.04 373.97 287.97 382.49C285.51 387.63 283.05 392.22 282.5 392.68C281.87 393.2 281.28 392.13 280.92 389.82C280.59 387.79 279.26 383.88 277.96 381.13C276.65 378.38 273.76 374.15 271.54 371.74C269.32 369.32 264.35 365.14 260.5 362.45C256.65 359.76 250.13 356.18 246 354.49C241.88 352.8 231.08 347.86 222 343.5C212.92 339.15 204.94 335.6 204.25 335.61C203.56 335.62 203 336.08 203 336.63C203 337.18 205.87 341.79 209.38 346.88C212.88 351.97 216.71 358.04 217.88 360.38C219.04 362.72 219.66 364.62 219.25 364.6C218.84 364.58 216.25 363.28 213.5 361.7C210.75 360.11 202.65 356.71 195.5 354.13C188.35 351.55 174.4 347.01 164.5 344.04C153.58 340.76 142.96 336.82 137.5 334.04C132.55 331.52 124.92 326.9 120.55 323.79C116.17 320.68 109.25 314.98 105.16 311.13C101.07 307.28 95.19 300.76 92.09 296.63C88.99 292.51 84.85 286.66 82.88 283.63C80.91 280.61 77.82 275.21 76.02 271.63C74.22 268.06 72.24 264.8 71.62 264.4C71 263.99 70.16 263.65 69.75 263.65C69.34 263.64 68.75 264.42 68.43 265.38C68.12 266.34 67.2 270.96 66.37 275.63C65.37 281.35 63.67 286.42 57.5 298.13L57.21 294.63C57.04 292.71 55.96 288.21 54.8 284.63C53.64 281.06 50.23 273.86 47.21 268.63C44.2 263.41 37.29 250.36 31.87 239.63C24.45 224.97 21.41 217.77 19.63 210.63C18.32 205.41 16.93 197.08 16.55 192.13C16.15 186.91 16.34 178.72 17.01 172.63C17.64 166.86 19.27 157.63 20.63 152.13C21.98 146.63 24.69 138.53 26.65 134.13C28.61 129.73 30.28 125.23 30.36 124.13C30.45 122.83 29.8 122.03 28.5 121.84C27.3 121.66 23.18 123.97 18.25 127.59C13.71 130.91 10 133.18 10 132.63C10 132.08 11.6 128.14 13.56 123.88C15.52 119.62 19.98 111.86 23.48 106.63C26.97 101.41 32.24 94.46 35.17 91.2C38.1 87.93 44.77 81.46 50 76.81C55.23 72.16 64.69 64.93 71.02 60.74C77.36 56.56 87.38 50.66 93.29 47.63C101.81 43.27 103.98 41.73 103.77 40.21C103.58 38.89 101.94 37.77 98.5 36.62C94.59 35.31 93.93 34.81 95.5 34.33C96.6 34 102.45 32.81 108.5 31.69C114.55 30.57 124.79 28.97 131.25 28.14C137.71 27.31 144.71 26.63 150.6 26.63L139.45 37.88C133.31 44.07 124.51 53.6 119.9 59.07C115.28 64.54 107.31 74.21 92.87 92.13L83.68 95.18C78.63 96.86 72.48 99.61 70 101.31C67.52 103 63.44 106.58 60.91 109.26C58.39 111.94 55.18 116.38 53.78 119.13C52.37 121.88 50.49 126.61 49.6 129.63C48.71 132.66 47.98 136.93 47.98 139.13C47.98 141.33 48.75 145.38 49.69 148.13C50.67 150.97 52.97 154.64 55.02 156.63C57.49 159.02 60.67 160.72 65.07 161.99C70.49 163.56 72.33 163.67 76.75 162.74C79.64 162.13 84.54 160.39 87.64 158.88C91.06 157.21 95.24 153.97 98.27 150.63C101.01 147.61 104.05 143.56 105.02 141.63C105.99 139.71 107.51 135.66 108.4 132.63C109.29 129.61 110.04 125.78 110.13 121.13L111.16 123.63C111.72 125.01 111.99 129.96 111.75 134.63C111.39 141.75 110.77 144.27 107.91 150.11C105.77 154.48 102.45 159.08 99 162.45C95.98 165.4 90.58 169.23 87.02 170.97C81.36 173.73 79.52 174.13 72.52 174.1C65.54 174.08 63.8 173.69 59.1 171.1C56.13 169.47 52.53 166.57 51.1 164.66C49.67 162.76 47.71 160.39 46.75 159.41C45.07 157.71 44.99 157.72 44.7 159.88C44.53 161.12 45.43 165.06 46.69 168.63C47.96 172.21 50.23 176.86 51.75 178.98C53.26 181.09 56.52 184.37 59 186.26C61.48 188.14 66.43 190.68 70 191.9C74.65 193.48 78.78 194.1 84.5 194.08C89.47 194.05 94.59 193.34 98 192.21C101.02 191.21 106.15 188.98 109.39 187.26C113.04 185.32 118.06 181.19 122.64 176.38C126.8 172 131.3 166.02 133 162.63C134.65 159.33 136.96 152.92 138.13 148.38C139.75 142.08 140.13 138.35 139.73 132.63C139.44 128.51 138.32 122.66 137.23 119.63C136.14 116.61 134.63 112.7 133.88 110.96C132.52 107.83 132.61 107.62 140.41 95.96C144.76 89.45 151.03 80.53 154.35 76.13C157.67 71.73 163.61 64.31 167.56 59.63C171.51 54.96 178.74 47.29 183.62 42.6C188.5 37.9 195.65 31.68 199.5 28.77C203.35 25.86 210.55 21.46 215.5 19C220.45 16.55 226.75 14.13 229.5 13.64C232.25 13.15 237.2 12.88 240.5 13.05ZM74.5 109.03C75.6 109.02 80.77 111.56 86 114.65C91.23 117.75 96.3 121.01 97.28 121.89C98.26 122.78 99.05 124.51 99.03 125.75C99.01 126.99 97.2 131.15 95 135C92.8 138.85 90.66 141.99 90.25 141.98C89.84 141.97 86.24 139.94 82.25 137.48C78.26 135.02 74.99 132.66 74.98 132.25C74.97 131.84 75.61 130.6 76.39 129.5C77.81 127.51 77.84 127.51 81.91 129.75C84.16 130.99 86.68 131.77 87.5 131.5C88.32 131.23 89.23 129.88 89.5 128.5C89.77 127.13 89.44 125.26 88.75 124.37C88.06 123.47 85.25 121.47 82.5 119.93C79.29 118.13 76.96 117.41 76 117.92C75.18 118.36 72.36 122.38 69.75 126.86C67.14 131.34 65.15 135.56 65.34 136.25C65.53 136.94 70.26 140.31 75.84 143.75C86 150 86 150 84.5 152.5C83.68 153.88 82.77 155 82.5 155C82.23 155 76.38 151.51 69.5 147.25C60 141.36 56.87 138.9 56.46 137C56.06 135.11 57.68 131.58 63.13 122.5C67.1 115.9 70.82 110.17 71.42 109.77C72.01 109.36 73.4 109.03 74.5 109.03ZM248 134C248.55 134 250.91 134.94 253.25 136.1C255.59 137.25 259.75 138.82 262.5 139.59C265.25 140.35 268.53 140.98 269.8 140.99C271.06 140.99 273.2 139.88 274.55 138.5C275.9 137.13 277.15 136.11 277.33 136.25C277.51 136.39 279.2 140.03 281.08 144.35C283.04 148.86 286.52 154.5 289.25 157.6C292.2 160.96 293.43 163 292.5 163C291.67 163 289.54 162.37 287.75 161.6C285.96 160.82 281.35 159.63 277.5 158.93C273.65 158.24 268.48 156.66 266 155.42C263.52 154.18 259.3 151.22 256.61 148.83C253.92 146.45 250.66 142.36 249.36 139.75C248.06 137.14 247 134.77 247 134.5C247 134.23 247.45 134 248 134ZM323.86 181.03C325.86 181.05 329.75 181.85 332.5 182.81C335.25 183.77 339.75 186.03 342.5 187.84C345.25 189.64 348.33 192.56 349.35 194.31C350.36 196.06 351.44 199.75 351.74 202.5C352.11 205.89 351.75 208.95 350.62 212C349.44 215.17 347.04 218.2 342.47 222.25C338.75 225.56 334.99 230.02 333.61 232.75C332.3 235.36 330.64 239.52 329.93 242C329.21 244.48 328.04 247.4 327.31 248.5C326.58 249.6 325.98 251.18 325.98 252C325.98 252.82 324.81 255.98 320.79 264.5L319.64 259.89C319.01 257.35 317.6 254.26 316.5 253.03C315.4 251.8 312.81 249.94 310.75 248.89C308.69 247.85 304.64 246.38 301.75 245.61C298.86 244.85 293.8 243.3 290.5 242.17C287.2 241.03 282.7 239.44 280.5 238.63C278.3 237.81 272.33 236.77 267.24 236.32C262.15 235.87 257.99 235.16 257.99 234.75C258 234.34 259.69 233.28 261.75 232.39C264.67 231.14 267.81 230.88 276 231.22C282.32 231.49 288.29 232.33 291 233.34C293.48 234.26 298.65 235.49 302.5 236.07C307.62 236.84 310.71 236.81 314 235.96C316.48 235.33 320.36 233.61 322.62 232.15C325.04 230.6 327.84 227.53 332 220L330.02 215.75C328.93 213.41 328.04 210.82 328.03 210C328.02 209.18 327.17 206.93 326.14 205C325.12 203.07 323.95 200.38 323.55 199C323.15 197.63 321.73 193.69 320.41 190.25C318.57 185.48 318.26 183.64 319.11 182.5C319.76 181.63 321.76 181.01 323.86 181.03Z" />
	<path id="Path 0 copy" fill-rule="evenodd" class="shp1" d="M229.5 13.64C226.75 14.13 220.45 16.55 215.5 19C210.55 21.46 203.35 25.86 199.5 28.77C195.65 31.68 188.5 37.9 183.62 42.6C178.74 47.29 171.51 54.96 167.56 59.63C163.61 64.31 157.67 71.73 154.35 76.13C151.03 80.53 144.76 89.45 140.41 95.96C132.61 107.62 132.52 107.83 133.88 110.96C134.63 112.7 136.14 116.61 137.23 119.63C138.32 122.66 139.44 128.51 139.73 132.63C140.13 138.35 139.75 142.08 138.13 148.38C136.96 152.92 134.65 159.33 133 162.63C131.3 166.02 126.8 172 122.64 176.38C118.06 181.19 113.04 185.32 109.39 187.26C106.15 188.98 101.02 191.21 98 192.21C94.59 193.34 89.47 194.05 84.5 194.08C78.78 194.1 74.65 193.48 70 191.9C66.43 190.68 61.48 188.14 59 186.26C56.52 184.37 53.26 181.09 51.75 178.98C50.23 176.86 47.96 172.21 46.69 168.63C45.43 165.06 44.53 161.12 44.7 159.88C44.99 157.72 45.07 157.71 46.75 159.41C47.71 160.39 49.67 162.76 51.1 164.66C52.53 166.57 56.13 169.47 59.1 171.1C63.8 173.69 65.54 174.08 72.52 174.1C79.52 174.13 81.36 173.73 87.02 170.97C90.58 169.23 95.98 165.4 99 162.45C102.45 159.08 105.77 154.48 107.91 150.11C110.77 144.27 111.39 141.75 111.75 134.63C111.99 129.96 111.72 125.01 111.16 123.63L110.13 121.13C110.04 125.78 109.29 129.61 108.4 132.63C107.51 135.66 105.99 139.71 105.02 141.63C104.05 143.56 101.01 147.61 98.27 150.63C95.24 153.97 91.06 157.21 87.64 158.88C84.54 160.39 79.64 162.13 76.75 162.74C72.33 163.67 70.49 163.56 65.07 161.99C60.67 160.72 57.49 159.02 55.02 156.63C52.97 154.64 50.67 150.97 49.69 148.13C48.75 145.38 47.98 141.33 47.98 139.13C47.98 136.93 48.71 132.66 49.6 129.63C50.49 126.61 52.37 121.88 53.78 119.13C55.18 116.38 58.39 111.94 60.91 109.26C63.44 106.58 67.52 103 70 101.31C72.48 99.61 78.63 96.86 83.68 95.18L92.87 92.13C107.31 74.21 115.28 64.54 119.9 59.07C124.51 53.6 133.31 44.07 139.45 37.88L150.6 26.63C144.71 26.63 137.71 27.31 131.25 28.14C124.79 28.97 114.55 30.57 108.5 31.69C102.45 32.81 96.6 34 95.5 34.33C93.93 34.81 94.59 35.31 98.5 36.62C101.94 37.77 103.58 38.89 103.77 40.21C103.98 41.73 101.81 43.27 93.29 47.63C87.38 50.66 77.36 56.56 71.02 60.74C64.69 64.93 55.23 72.16 50 76.81C44.77 81.46 38.1 87.93 35.17 91.2C32.24 94.46 26.97 101.41 23.48 106.63C19.98 111.86 15.52 119.62 13.56 123.88C11.6 128.14 10 132.08 10 132.63C10 133.18 13.71 130.91 18.25 127.59C23.18 123.97 27.3 121.66 28.5 121.84C29.8 122.03 30.45 122.83 30.36 124.13C30.28 125.23 28.61 129.73 26.65 134.13C24.69 138.53 21.98 146.63 20.63 152.13C19.27 157.63 17.64 166.86 17.01 172.63C16.34 178.72 16.15 186.91 16.55 192.13C16.93 197.08 18.32 205.41 19.63 210.63C21.41 217.77 24.45 224.97 31.87 239.63C37.29 250.36 44.2 263.41 47.21 268.63C50.23 273.86 53.64 281.06 54.8 284.63C55.96 288.21 57.04 292.71 57.21 294.63L57.5 298.13C63.67 286.42 65.37 281.35 66.37 275.63C67.2 270.96 68.12 266.34 68.43 265.38C68.75 264.42 69.34 263.64 69.75 263.65C70.16 263.65 71 263.99 71.62 264.4C72.24 264.8 74.22 268.06 76.02 271.63C77.82 275.21 80.91 280.61 82.88 283.63C84.85 286.66 88.99 292.51 92.09 296.63C95.19 300.76 101.07 307.28 105.16 311.13C109.25 314.98 116.17 320.68 120.55 323.79C124.92 326.9 132.55 331.52 137.5 334.04C142.96 336.82 153.58 340.76 164.5 344.04C174.4 347.01 188.35 351.55 195.5 354.13C202.65 356.71 210.75 360.11 213.5 361.7C216.25 363.28 218.84 364.58 219.25 364.6C219.66 364.62 219.04 362.72 217.88 360.38C216.71 358.04 212.88 351.97 209.38 346.88C205.87 341.79 203 337.18 203 336.63C203 336.08 203.56 335.62 204.25 335.61C204.94 335.6 212.92 339.15 222 343.5C231.08 347.86 241.88 352.8 246 354.49C250.13 356.18 256.65 359.76 260.5 362.45C264.35 365.14 269.32 369.32 271.54 371.74C273.76 374.15 276.65 378.38 277.96 381.13C279.26 383.88 280.59 387.79 280.92 389.82C281.28 392.13 281.87 393.2 282.5 392.68C283.05 392.22 285.51 387.63 287.97 382.49C292.04 373.97 292.48 372.32 292.83 364.13C293.18 356.16 292.76 353.29 289.18 339.13C286.96 330.33 284.86 321.11 284.52 318.63C284.12 315.74 284.45 312.34 285.44 309.13C286.28 306.38 286.98 303.79 286.99 303.38C287 302.97 283.96 302.14 280.25 301.55C276.54 300.95 268.44 298.93 262.25 297.05C256.06 295.17 246.39 291.55 240.75 289.01C235.11 286.47 227.13 282.11 223 279.34C218.88 276.56 211.96 270.88 207.64 266.71C203.32 262.54 197.84 256.43 195.46 253.13C193.08 249.83 189.57 243.76 187.66 239.63C185.75 235.51 183.06 227.86 181.68 222.63C180.3 217.41 178.89 210.43 178.54 207.13C178.13 203.22 178.44 198.69 179.44 194.13C180.38 189.84 182.14 185.48 183.98 182.88L187 178.63C182.74 178.68 178.83 180.14 175.56 181.91C172.01 183.83 168.58 186.64 167.06 188.87C165.37 191.34 163.83 192.53 162.54 192.37C161.14 192.2 160.33 190.99 159.71 188.13C159.22 185.93 159.09 180.19 159.41 175.38C159.79 169.83 161.09 163.24 162.97 157.38C164.6 152.29 167.55 145.43 169.52 142.13C171.5 138.83 176.12 133.07 179.81 129.33C183.49 125.58 189.54 120.52 193.25 118.08C196.96 115.63 201.82 112.84 204.04 111.88C206.26 110.92 207.72 109.83 207.29 109.46C206.85 109.09 202.9 108.05 198.5 107.15C193.99 106.23 186.35 105.57 181 105.64C175.77 105.7 170.94 105.73 170.25 105.69C169.56 105.66 169 104.96 169 104.13C169 103.31 171.59 100.89 174.75 98.77C177.91 96.64 183.2 93.55 186.5 91.89C189.8 90.23 197 87.44 202.5 85.69C210.19 83.24 215.05 82.37 223.5 81.93C231.77 81.49 236.61 81.77 243 83.05C247.67 83.99 256 86.56 261.5 88.76C267 90.96 274.2 94.42 277.5 96.43C280.8 98.45 286.65 102.62 290.5 105.69C294.35 108.77 299.41 113.16 301.75 115.46C304.09 117.75 306.45 119.41 307 119.13C307.55 118.86 308 116.61 308 114.13C308 111.66 307.53 105.24 306.95 99.88C306.37 94.52 305.19 87.21 304.32 83.63C303.46 80.06 301.51 74.43 299.99 71.13C298.48 67.83 296.53 64.23 295.67 63.13L294.1 61.13C294.97 64.23 294.95 66.37 294.61 67.88C294.23 69.59 293.34 70.63 292.25 70.64C291.29 70.65 287.8 67.91 284.5 64.56C281.2 61.21 274.79 55.81 270.25 52.55C265.71 49.3 261.96 46.07 261.92 45.38C261.88 44.69 261.89 41.43 261.95 38.13C262.01 34.83 261.59 30.56 261.02 28.63C260.44 26.71 258.74 23.39 257.23 21.26C255.73 19.13 252.7 16.48 250.5 15.37C248.18 14.2 243.98 13.22 240.5 13.05C237.2 12.88 232.25 13.15 229.5 13.64Z" />
</svg>