<svg xmlns="http://www.w3.org/2000/svg" viewBox="0 0 2329 1752" width="200" height="150">
	<style>
		tspan { white-space:pre }
		.shp0 { fill: #e6ac0a } 
		.shp1 { opacity: 0.996;fill: #ffffff } 
		.shp2 { fill: #212529 } 
	</style>
	<path id="Rectangle 1" class="shp0" d="M646 106L2249 106L2065.44 1676L462.44 1676L646 106Z" />
	<path id="Ellipse 1" class="shp0" d="M108 416C136.17 416 1623 405 1451 467C1279 529 136.17 518 108 518C79.83 518 57 495.17 57 467C57 438.83 79.83 416 108 416Z" />
	<path id="Ellipse 1 copy" class="shp0" d="M184 629C212.17 629 1699 618 1527 680C1355 742 212.17 731 184 731C155.83 731 133 708.17 133 680C133 651.83 155.83 629 184 629Z" />
	<path id="Ellipse 1 copy 2" class="shp0" d="M284 839C312.17 839 1799 828 1627 890C1455 952 312.17 941 284 941C255.83 941 233 918.17 233 890C233 861.83 255.83 839 284 839Z" />
	<g id="MARTZONE">
		<path id="Path 0" fill-rule="evenodd" class="shp1" d="M7941.5 123.19C7953.05 123.09 7971.27 123.47 7982 124.04C7992.73 124.6 8008.48 125.73 8017 126.56C8025.52 127.38 8038.8 128.95 8046.5 130.05C8054.2 131.15 8067.7 133.42 8076.5 135.1C8085.3 136.78 8100.6 140.19 8110.5 142.68C8120.4 145.16 8136.15 149.67 8145.5 152.69C8154.85 155.72 8169.7 161.04 8178.5 164.52C8187.3 168 8201.48 174.07 8210 178C8218.52 181.93 8231.35 188.32 8238.5 192.2C8245.65 196.07 8257.35 202.76 8264.5 207.05C8271.65 211.35 8283.65 219.06 8291.18 224.18C8298.7 229.31 8310.17 237.62 8316.68 242.66C8323.18 247.69 8332.55 255.27 8337.5 259.5C8342.45 263.72 8352.09 272.43 8358.93 278.84C8365.76 285.25 8376.54 296.13 8382.87 303C8389.2 309.88 8398.69 320.68 8403.95 327C8409.22 333.32 8417.55 343.9 8422.48 350.5C8427.4 357.1 8435.06 367.9 8439.49 374.5C8443.93 381.1 8451.08 392.35 8455.4 399.5C8459.71 406.65 8467.21 419.93 8472.07 429C8476.93 438.07 8484.26 452.93 8488.37 462C8492.48 471.07 8498.63 485.48 8502.03 494C8505.43 502.52 8510.88 517.38 8514.15 527C8517.41 536.63 8521.84 550.58 8523.98 558C8526.12 565.42 8529.45 577.8 8531.37 585.5C8533.3 593.2 8536.22 606.02 8537.88 614C8539.53 621.98 8542.01 635.25 8543.4 643.5C8544.79 651.75 8546.83 665.48 8547.94 674C8549.04 682.52 8550.63 696.92 8551.45 706C8552.28 715.08 8553.48 732.85 8554.11 745.5C8554.81 759.62 8555.03 782.4 8554.66 804.5C8554.33 824.3 8553.59 847.25 8553.02 855.5C8552.46 863.75 8551.3 878.15 8550.44 887.5C8549.59 896.85 8547.77 913.27 8546.4 924C8545.03 934.73 8542.38 952.5 8540.51 963.5C8538.64 974.5 8535.46 991.38 8533.45 1001C8531.44 1010.63 8527.41 1027.95 8524.48 1039.5C8521.55 1051.05 8516.23 1070.17 8512.65 1082C8509.07 1093.83 8503.37 1111.38 8499.97 1121C8496.57 1130.63 8490.73 1146.15 8487 1155.5C8483.26 1164.85 8477.42 1178.8 8474.02 1186.5C8470.62 1194.2 8463.22 1209.72 8457.59 1221C8451.95 1232.28 8443.81 1247.8 8439.51 1255.5C8435.2 1263.2 8428.53 1274.67 8424.69 1281C8420.85 1287.33 8412.64 1300.15 8406.46 1309.5C8400.28 1318.85 8389.7 1333.92 8382.96 1343C8376.22 1352.08 8366.86 1364.22 8362.16 1370C8357.46 1375.78 8347.51 1387.47 8340.06 1396C8332.6 1404.53 8317.95 1420.06 8307.5 1430.53C8297.05 1441 8282.65 1454.76 8275.5 1461.12C8268.35 1467.48 8257.1 1477.11 8250.5 1482.52C8243.9 1487.94 8231.3 1497.75 8222.5 1504.33C8213.7 1510.92 8198.17 1521.8 8188 1528.52C8177.82 1535.24 8163.43 1544.34 8156 1548.75C8148.57 1553.16 8137.1 1559.69 8130.5 1563.26C8123.9 1566.83 8114 1572.01 8108.5 1574.76C8103 1577.52 8091.07 1583.14 8082 1587.24C8072.93 1591.35 8058.07 1597.66 8049 1601.26C8039.93 1604.87 8023.27 1610.96 8012 1614.79C8000.73 1618.62 7983.4 1624.04 7973.5 1626.83C7963.6 1629.62 7949.88 1633.24 7943 1634.87C7936.13 1636.5 7922.4 1639.43 7912.5 1641.38C7902.6 1643.33 7885.05 1646.26 7873.5 1647.9C7861.95 1649.54 7844.85 1651.58 7835.5 1652.42C7826.15 1653.27 7809.05 1654.48 7797.5 1655.11C7784.83 1655.8 7764.2 1656.02 7745.5 1655.67C7728.45 1655.34 7708.65 1654.59 7701.5 1654C7694.35 1653.41 7681.07 1652.03 7672 1650.94C7662.93 1649.85 7648.75 1647.83 7640.5 1646.45C7632.25 1645.07 7618.3 1642.33 7609.5 1640.37C7600.7 1638.41 7585.85 1634.63 7576.5 1631.96C7567.15 1629.3 7554.1 1625.26 7547.5 1622.98C7540.9 1620.7 7528.75 1616.12 7520.5 1612.82C7512.25 1609.51 7496.05 1602.21 7484.5 1596.59C7472.95 1590.98 7456.98 1582.64 7449 1578.07C7441.02 1573.5 7427.98 1565.48 7420 1560.25C7412.02 1555.03 7399.65 1546.39 7392.5 1541.07C7385.35 1535.75 7373.88 1526.7 7367 1520.97C7360.13 1515.24 7345.46 1501.54 7334.41 1490.53C7323.35 1479.51 7309.21 1464.42 7302.97 1457C7296.74 1449.58 7286.92 1437.2 7281.17 1429.5C7275.42 1421.8 7267.69 1411 7264 1405.5C7260.31 1400 7252.69 1387.85 7247.06 1378.5C7241.44 1369.15 7232.2 1352.28 7226.53 1341C7220.86 1329.72 7213.31 1313.75 7209.74 1305.5C7206.18 1297.25 7200.55 1283.3 7197.24 1274.5C7193.93 1265.7 7189.1 1251.97 7186.51 1244C7183.93 1236.03 7179.82 1222.3 7177.39 1213.5C7174.96 1204.7 7171.2 1189.63 7169.03 1180C7166.86 1170.38 7163.5 1153.28 7161.57 1142C7159.64 1130.72 7157.16 1114.3 7156.06 1105.5C7154.95 1096.7 7153.37 1081.63 7152.54 1072C7151.71 1062.38 7150.52 1041.22 7149.89 1025C7149.05 1002.92 7149.05 987.2 7149.91 962.5C7150.54 944.35 7151.74 920.95 7152.56 910.5C7153.39 900.05 7155.18 882.05 7156.54 870.5C7157.91 858.95 7160.17 842.08 7161.58 833C7162.98 823.92 7166.14 806.38 7168.59 794C7171.05 781.63 7175.05 763.4 7177.48 753.5C7179.92 743.6 7184.21 727.4 7187.02 717.5C7189.82 707.6 7195.63 688.92 7199.92 676C7204.21 663.08 7210.67 644.85 7214.28 635.5C7217.88 626.15 7223.3 612.65 7226.31 605.5C7229.33 598.35 7235.68 584.17 7240.42 574C7245.16 563.83 7253.24 547.63 7258.39 538C7263.53 528.38 7271.67 513.75 7276.48 505.5C7281.29 497.25 7291.63 480.82 7299.46 469C7307.29 457.18 7318.4 441.2 7324.16 433.5C7329.91 425.8 7338.6 414.55 7343.48 408.5C7348.35 402.45 7358.45 390.52 7365.92 382C7373.39 373.48 7388.05 357.92 7398.5 347.44C7408.95 336.95 7423.35 323.19 7430.5 316.85C7437.65 310.51 7448.9 300.89 7455.5 295.48C7462.1 290.06 7474.25 280.59 7482.5 274.43C7490.75 268.27 7504.48 258.54 7513 252.82C7521.52 247.1 7535.7 238.11 7544.5 232.85C7553.3 227.58 7565.45 220.56 7571.5 217.25C7577.55 213.94 7589.02 207.97 7597 203.98C7604.98 200 7618.02 193.83 7626 190.29C7633.98 186.75 7647.7 180.98 7656.5 177.49C7665.3 173.99 7681.27 168.15 7692 164.51C7702.73 160.87 7719.15 155.71 7728.5 153.05C7737.85 150.39 7751.35 146.79 7758.5 145.04C7765.65 143.3 7779.15 140.34 7788.5 138.46C7797.85 136.59 7813.15 133.89 7822.5 132.48C7831.85 131.06 7847.38 129.05 7857 128.01C7866.63 126.96 7882.38 125.62 7892 125.03C7901.63 124.44 7911.98 123.82 7915 123.66C7918.02 123.5 7929.95 123.29 7941.5 123.19ZM7864 323.58C7854.93 324.43 7839.63 326.45 7830 328.07C7820.38 329.68 7804.18 333.06 7794 335.57C7783.82 338.07 7767.63 342.76 7758 345.99C7748.38 349.22 7734.43 354.42 7727 357.54C7719.57 360.67 7706.98 366.5 7699 370.49C7691.02 374.49 7680 380.33 7674.5 383.48C7669 386.62 7657.52 393.82 7649 399.48C7640.48 405.14 7629.17 413.09 7623.87 417.14C7618.57 421.19 7608.89 429.07 7602.37 434.65C7595.84 440.23 7582.61 452.83 7572.96 462.65C7563.31 472.47 7551.11 485.68 7545.85 492C7540.6 498.32 7532.11 509.13 7527 516C7521.89 522.88 7514.7 533 7511.03 538.5C7507.35 544 7501.19 553.67 7497.35 560C7493.5 566.33 7487.04 577.58 7482.98 585C7478.93 592.42 7472.37 605.25 7468.42 613.5C7464.46 621.75 7458.66 634.58 7455.52 642C7452.39 649.42 7447.34 662.02 7444.31 670C7441.28 677.98 7436.63 691.02 7433.97 699C7431.31 706.98 7427.07 720.7 7424.54 729.5C7422.01 738.3 7418.39 751.8 7416.48 759.5C7414.58 767.2 7411.25 782.27 7409.09 793C7406.92 803.73 7404 819.92 7402.6 829C7401.2 838.08 7399.15 852.92 7398.04 862C7396.94 871.08 7395.37 886.38 7394.55 896C7393.73 905.63 7392.54 923.63 7391.91 936C7391.2 949.79 7390.97 973.98 7391.31 998.5C7391.64 1022.78 7392.48 1044.99 7393.43 1055C7394.3 1064.08 7395.7 1076.9 7396.56 1083.5C7397.42 1090.1 7399.23 1102.03 7400.6 1110C7401.96 1117.97 7404.68 1131.7 7406.65 1140.5C7408.61 1149.3 7412.62 1164.6 7415.54 1174.5C7418.47 1184.4 7422.42 1196.78 7424.33 1202C7426.24 1207.22 7429.68 1216.22 7431.99 1222C7434.29 1227.78 7438.99 1238.58 7442.43 1246C7445.87 1253.42 7451.95 1265.35 7455.93 1272.5C7459.91 1279.65 7467.81 1292.47 7473.48 1301C7479.16 1309.53 7488.67 1322.58 7494.63 1330C7500.59 1337.42 7511.55 1349.58 7518.99 1357.01C7526.42 1364.44 7538.13 1375.04 7545 1380.56C7551.88 1386.08 7562.23 1393.76 7568 1397.63C7573.77 1401.5 7582.55 1407.05 7587.5 1409.96C7592.45 1412.87 7601 1417.5 7606.5 1420.25C7612 1423.01 7620.32 1426.95 7625 1429.01C7629.68 1431.07 7640.7 1435.23 7649.5 1438.25C7658.3 1441.27 7672.02 1445.36 7680 1447.34C7687.98 1449.31 7699.68 1451.82 7706 1452.9C7712.32 1453.98 7724.02 1455.68 7732 1456.68C7743.7 1458.13 7753.92 1458.48 7785 1458.49C7809.85 1458.5 7827.93 1458.03 7836 1457.19C7842.88 1456.46 7854.57 1455 7862 1453.93C7869.43 1452.86 7880.23 1451.05 7886 1449.92C7891.77 1448.78 7903.7 1446.04 7912.5 1443.82C7921.3 1441.61 7935.02 1437.65 7943 1435.03C7950.98 1432.41 7962.9 1428.13 7969.5 1425.53C7976.1 1422.92 7990.5 1416.38 8001.5 1410.99C8012.5 1405.61 8028.25 1397.15 8036.5 1392.21C8044.75 1387.26 8057.13 1379.27 8064 1374.45C8070.88 1369.62 8080.1 1362.87 8084.5 1359.45C8088.9 1356.02 8097.66 1348.78 8103.97 1343.36C8110.28 1337.94 8121.32 1327.65 8128.5 1320.5C8135.69 1313.35 8146.28 1302.1 8152.04 1295.5C8157.8 1288.9 8166.37 1278.55 8171.08 1272.5C8175.79 1266.45 8182.83 1257 8186.73 1251.5C8190.62 1246 8197.36 1235.88 8201.71 1229C8206.05 1222.13 8212.82 1210.88 8216.74 1204C8220.66 1197.13 8228.37 1182.28 8233.88 1171C8239.39 1159.72 8246.88 1143.3 8250.52 1134.5C8254.16 1125.7 8259.99 1110.63 8263.47 1101C8266.95 1091.38 8272.5 1074.5 8275.81 1063.5C8279.12 1052.5 8283.87 1035.17 8286.35 1025C8288.84 1014.83 8292.47 998.4 8294.43 988.5C8296.39 978.6 8299.09 963.52 8300.44 955C8301.78 946.48 8303.8 932.08 8304.92 923C8306.04 913.92 8307.63 898.85 8308.44 889.5C8309.26 880.15 8310.46 863.73 8311.11 853C8311.76 842.27 8312.3 816.4 8312.31 795.5C8312.33 774.6 8311.79 750.3 8311.13 741.5C8310.46 732.7 8309.01 717.4 8307.92 707.5C8306.82 697.6 8304.79 682.75 8303.41 674.5C8302.02 666.25 8299.56 653.2 8297.93 645.5C8296.3 637.8 8293.2 624.98 8291.02 617C8288.85 609.02 8284.65 595.3 8281.68 586.5C8278.72 577.7 8273.92 564.65 8271.03 557.5C8268.14 550.35 8262.03 536.85 8257.45 527.5C8252.87 518.15 8245.61 504.64 8241.31 497.47C8237.02 490.3 8230.03 479.5 8225.8 473.47C8221.56 467.44 8214.13 457.56 8209.3 451.53C8204.46 445.49 8195.33 435.2 8189 428.65C8182.68 422.11 8173.23 413.04 8168 408.51C8162.77 403.98 8153.46 396.5 8147.31 391.89C8141.15 387.27 8131.7 380.74 8126.31 377.38C8120.91 374.01 8111.77 368.67 8106 365.52C8100.23 362.36 8090.32 357.42 8084 354.52C8077.68 351.62 8066.65 347.13 8059.5 344.53C8052.35 341.93 8041.32 338.32 8035 336.51C8028.68 334.69 8018.1 331.99 8011.5 330.51C8004.9 329.03 7992.07 326.76 7983 325.47C7973.93 324.17 7960.2 322.64 7952.5 322.06C7944.8 321.48 7927.7 321.08 7914.5 321.18C7901.3 321.28 7888.25 321.51 7885.5 321.69C7882.75 321.87 7873.07 322.72 7864 323.58Z" />
		<path id="Path 1" class="shp2" d="M710.59 143.2C710.26 145.02 707.73 165.18 704.96 188C702.19 210.82 696.1 260.55 691.43 298.5C686.76 336.45 673.29 446.02 661.5 542C649.71 637.98 633.28 771.63 625 839C616.72 906.38 600.04 1042.05 587.93 1140.5C575.83 1238.95 562.81 1344.92 558.99 1376C555.18 1407.08 546.41 1478.4 539.52 1534.5C532.62 1590.6 526.99 1637.29 526.99 1638.25C527 1639.91 532.57 1640 630 1640L733 1640C733.77 1633.41 762.33 1399.53 796.98 1116C831.62 832.48 860.65 591.5 861.48 580.5C862.32 569.5 863.67 546.77 864.5 530C865.33 513.23 866.04 497.7 866.08 495.5L866.16 491.5C868.2 496.15 943.05 697.3 1033.81 941.5C1124.57 1185.7 1199.8 1387.97 1200.98 1391C1202.17 1394.03 1205.08 1399.65 1207.45 1403.5C1209.94 1407.52 1215.11 1413.63 1219.63 1417.85C1225.36 1423.21 1229.95 1426.41 1236.5 1429.61C1241.45 1432.04 1249.1 1435.01 1253.5 1436.22C1260.95 1438.27 1263.68 1438.42 1293.5 1438.46C1319.74 1438.49 1326.85 1438.2 1333 1436.84C1337.13 1435.93 1344.33 1433.71 1349 1431.9C1353.67 1430.1 1361.33 1426.06 1366 1422.92C1370.67 1419.78 1378.11 1413.46 1382.52 1408.86C1386.93 1404.26 1392.78 1397.11 1395.52 1392.96C1398.26 1388.82 1523.35 1184.66 1673.5 939.28C1823.65 693.91 1946.63 493.45 1946.78 493.82C1946.94 494.19 1945.5 501.48 1943.59 510C1941.69 518.52 1938.54 533.6 1936.61 543.5C1934.68 553.4 1931.96 568.25 1930.58 576.5C1929.19 584.75 1926.48 604.1 1924.55 619.5C1922.63 634.9 1912.25 719.27 1901.49 807C1890.73 894.73 1870.94 1056.05 1857.5 1165.5C1844.06 1274.95 1825.64 1425.25 1816.55 1499.5C1807.47 1573.75 1799.81 1635.74 1799.52 1637.25L1799 1640L2004.5 1640.03C2005.75 1630.32 2011.7 1582.05 2018.53 1526.5C2025.36 1470.95 2039.07 1359.35 2049 1278.5C2058.93 1197.65 2070.66 1102.25 2075.06 1066.5C2079.46 1030.75 2096.11 895.3 2112.06 765.5C2128.01 635.7 2144.19 504.07 2148 473C2151.82 441.93 2162.37 355.98 2171.43 282C2180.5 208.03 2188.17 145.81 2188.46 143.75L2189 140C2004.81 140.65 1990.49 140.91 1984 142.28C1979.88 143.16 1973.8 144.82 1970.5 145.99C1967.2 147.15 1960.9 150.5 1956.5 153.43C1952.1 156.35 1943.98 163.19 1938.46 168.63L1928.43 178.5C1501.25 870.58 1374.78 1075.55 1371.8 1080.5C1368.81 1085.45 1363.05 1095.58 1358.99 1103C1354.93 1110.42 1347.25 1125.5 1341.93 1136.5C1336.6 1147.5 1330.79 1159.88 1329.01 1164C1327.24 1168.13 1325.41 1171.95 1324.97 1172.5C1324.52 1173.06 1322.73 1167.27 1320.95 1159.5C1319.18 1151.8 1315.3 1136.5 1312.32 1125.5C1309.35 1114.5 1304.86 1098.75 1302.35 1090.5C1299.84 1082.25 1222.21 873.68 1129.83 627C977.8 221.01 961.44 177.88 957.27 172C954.73 168.43 949.45 162.35 945.54 158.5C940.65 153.69 936.1 150.35 930.97 147.82C926.86 145.79 920.13 143.35 916 142.39C909.19 140.8 899.47 140.6 809.84 140.27L711.18 139.9L710.59 143.2Z" />
	</g>
</svg>